<svg xmlns="http://www.w3.org/2000/svg" width="20" height="20" viewBox="0 0 20 20" fill="none">
<path fill-rule="evenodd" clip-rule="evenodd" d="M13.2016 8.94238C13.3496 8.17543 13.4272 7.38335 13.4272 6.57317V1.01365H0.999979V19.0003C4.00931 19.0003 6.76882 17.9307 8.91903 16.1508C11.0642 17.5799 14.5039 18.9384 18.6597 18.1828C17.515 17.6922 13.1001 14.7489 13.2636 8.86238C13.2438 8.88966 13.2231 8.91633 13.2016 8.94238Z" fill="#DCE3EB"/>
<path d="M13.2016 8.94238L13.398 9.10466L12.9514 8.89409L13.2016 8.94238ZM13.4272 1.01365V0.758861H13.6819V1.01365H13.4272ZM0.999979 1.01365H0.745192V0.758861H0.999979V1.01365ZM0.999979 19.0003V19.2551H0.745192V19.0003H0.999979ZM8.91903 16.1508L8.75656 15.9546L8.90256 15.8337L9.06029 15.9388L8.91903 16.1508ZM18.6597 18.1828L18.76 17.9486L19.538 18.282L18.7052 18.4334L18.6597 18.1828ZM13.2636 8.86238L13.0576 8.71252L13.5412 8.04762L13.5183 8.86945L13.2636 8.86238ZM13.6819 6.57317C13.6819 7.39964 13.6028 8.20788 13.4517 8.99067L12.9514 8.89409C13.0964 8.14297 13.1724 7.36706 13.1724 6.57317H13.6819ZM13.6819 1.01365V6.57317H13.1724V1.01365H13.6819ZM0.999979 0.758861H13.4272V1.26843H0.999979V0.758861ZM0.745192 19.0003V1.01365H1.25477V19.0003H0.745192ZM9.08149 16.3471C6.88728 18.1634 4.07079 19.2551 0.999979 19.2551V18.7456C3.94784 18.7456 6.65036 17.698 8.75656 15.9546L9.08149 16.3471ZM18.7052 18.4334C14.4683 19.2038 10.9624 17.8183 8.77776 16.3629L9.06029 15.9388C11.166 17.3416 14.5395 18.6729 18.6141 17.9321L18.7052 18.4334ZM13.5183 8.86945C13.4385 11.7424 14.4745 13.8925 15.6701 15.3869C16.8706 16.8876 18.2267 17.72 18.76 17.9486L18.5593 18.4169C17.948 18.1549 16.5244 17.2705 15.2721 15.7052C14.0149 14.1337 12.9252 11.8689 13.009 8.85531L13.5183 8.86945ZM13.0052 8.78009C13.0234 8.75802 13.0409 8.7355 13.0576 8.71252L13.4697 9.01224C13.4467 9.04383 13.4228 9.07463 13.398 9.10466L13.0052 8.78009Z" fill="#DCE3EB"/>
</svg>