<svg width="32" height="32" viewBox="0 0 32 32" fill="none" xmlns="http://www.w3.org/2000/svg">
<g clip-path="url(#clip0_1538_13639)">
<path d="M31.6552 15.7598C31.5185 7.17401 24.4624 0.241542 15.87 0.248051C12.5177 0.248051 9.41276 1.29606 6.85458 3.08613L1.0938 0.66465C0.722765 0.508426 0.345222 0.879459 0.494937 1.25049L2.83831 7.14797C1.13936 9.63454 0.136923 12.6223 0.104376 15.851C0.013245 24.5475 7.17354 31.7989 15.87 31.7989C24.6772 31.7989 31.7984 24.5996 31.6552 15.7598Z" fill="url(#paint0_linear_1538_13639)"/>
<path d="M0.0455721 16.3063C0.182269 24.9312 7.27096 31.8897 15.8959 31.8832C19.0854 31.8832 22.0602 30.9328 24.5403 29.312C24.8007 29.1428 25.1261 29.1167 25.4125 29.2339L30.7307 31.4666C31.1017 31.6228 31.4793 31.2518 31.3295 30.8742L29.1619 25.4064C29.0513 25.1265 29.0773 24.814 29.24 24.5602C30.7828 22.1452 31.6876 19.2876 31.7201 16.2152C31.8112 7.47962 24.6249 0.208662 15.8893 0.202153C7.04964 0.195643 -0.0976338 7.43405 0.0455721 16.3063ZM8.53377 9.16554C12.5175 4.92144 19.2417 4.92144 23.2254 9.16554C26.8316 13.0126 26.8316 19.0793 23.2254 22.9263C19.2417 27.1704 12.5175 27.1704 8.53377 22.9263C4.92759 19.0793 4.92759 13.0126 8.53377 9.16554Z" fill="#D7DFE7"/>
</g>
<defs>
<linearGradient id="paint0_linear_1538_13639" x1="-2.18692" y1="-1.60711" x2="51.294" y2="50.5133" gradientUnits="userSpaceOnUse">
<stop stop-color="#00FFBB"/>
<stop offset="0.9" stop-color="#3D7DF3"/>
<stop offset="1" stop-color="#6E32E6"/>
</linearGradient>
<clipPath id="clip0_1538_13639">
<rect width="32" height="32" fill="white"/>
</clipPath>
</defs>
</svg>
