<svg width="20" height="20" viewBox="0 0 20 20" fill="none" xmlns="http://www.w3.org/2000/svg">
<path fill-rule="evenodd" clip-rule="evenodd" d="M6.79841 8.9424C6.65036 8.17545 6.57283 7.38338 6.57283 6.57319V1.01367H19V19.0004C15.9907 19.0004 13.2312 17.9307 11.081 16.1509C8.93582 17.5799 5.4961 18.9384 1.34033 18.1828C2.48494 17.6922 6.89986 14.749 6.73634 8.8624C6.75619 8.88969 6.77688 8.91635 6.79841 8.9424Z" fill="#D7DFE7"/>
<path d="M6.79841 8.9424L6.60199 9.10469L7.04858 8.89411L6.79841 8.9424ZM6.57283 1.01367V0.758885H6.31805V1.01367H6.57283ZM19 1.01367H19.2548V0.758885H19V1.01367ZM19 19.0004V19.2552H19.2548V19.0004H19ZM11.081 16.1509L11.2434 15.9546L11.0974 15.8337L10.9397 15.9388L11.081 16.1509ZM1.34033 18.1828L1.23997 17.9486L0.461936 18.282L1.29475 18.4335L1.34033 18.1828ZM6.73634 8.8624L6.9424 8.71255L6.45883 8.04764L6.48165 8.86948L6.73634 8.8624ZM6.31805 6.57319C6.31805 7.39967 6.39714 8.20791 6.54824 8.99069L7.04858 8.89411C6.90359 8.14299 6.82762 7.36708 6.82762 6.57319H6.31805ZM6.31805 1.01367V6.57319H6.82762V1.01367H6.31805ZM19 0.758885H6.57283V1.26846H19V0.758885ZM19.2548 19.0004V1.01367H18.7452V19.0004H19.2548ZM10.9185 16.3471C13.1127 18.1634 15.9292 19.2552 19 19.2552V18.7456C16.0521 18.7456 13.3496 17.698 11.2434 15.9546L10.9185 16.3471ZM1.29475 18.4335C5.53167 19.2038 9.0376 17.8183 11.2222 16.3629L10.9397 15.9388C8.83403 17.3416 5.46052 18.6729 1.38591 17.9321L1.29475 18.4335ZM6.48165 8.86948C6.56146 11.7424 5.52544 13.8925 4.32993 15.3869C3.12941 16.8876 1.77324 17.7201 1.23997 17.9486L1.4407 18.417C2.05203 18.155 3.47562 17.2705 4.72784 15.7053C5.98506 14.1337 7.07474 11.8689 6.99103 8.85533L6.48165 8.86948ZM6.99482 8.78012C6.97659 8.75804 6.95911 8.73552 6.9424 8.71255L6.53029 9.01226C6.55326 9.04386 6.57718 9.07466 6.60199 9.10469L6.99482 8.78012Z" fill="#D7DFE7"/>
</svg>
