<svg width="16" height="16" viewBox="0 0 16 16" fill="none" xmlns="http://www.w3.org/2000/svg">
<g id="chat">
<path id="Vector" d="M13.9997 7.98149C14.0021 8.91029 13.7851 9.82652 13.3663 10.6556C12.8698 11.649 12.1065 12.4846 11.1619 13.0688C10.2174 13.6529 9.1288 13.9625 8.01818 13.963C7.08939 13.9654 6.17316 13.7484 5.34411 13.3296L1.33301 14.6667L2.67004 10.6556C2.25129 9.82652 2.03429 8.91029 2.03671 7.98149C2.03714 6.87088 2.34677 5.78232 2.93092 4.83774C3.51507 3.89316 4.35066 3.12986 5.34411 2.63335C6.17316 2.2146 7.08939 1.9976 8.01818 2.00002H8.37003C9.8368 2.08094 11.2222 2.70004 12.2609 3.73877C13.2996 4.7775 13.9187 6.16288 13.9997 7.62964V7.98149Z" stroke="white" stroke-opacity="0.6" stroke-linecap="round" stroke-linejoin="round"/>
</g>
</svg>
