<svg width="14" height="13" viewBox="0 0 14 13" fill="none" xmlns="http://www.w3.org/2000/svg">
<path d="M6.5539 2.68846L6.99967 3.56594L7.44545 2.68846C7.95854 1.67848 8.9709 1 10.1303 1C11.7925 1 13.1663 2.39286 13.1663 4.154C13.1663 5.98319 12.2452 7.57655 10.5473 9.17158L10.5472 9.17166C9.75041 9.92058 8.79838 10.6467 8.03877 11.1894C7.66035 11.4598 7.33255 11.6825 7.09974 11.8375C7.06332 11.8617 7.02924 11.8843 6.99766 11.9051C6.96347 11.8829 6.92636 11.8586 6.88657 11.8325C6.64813 11.6758 6.31367 11.451 5.93103 11.1795C5.16208 10.6338 4.21348 9.90993 3.45776 9.17706C1.92915 7.69467 0.833008 5.96899 0.833008 4.154C0.833008 2.39832 2.20738 1 3.86901 1C5.02845 1 6.04081 1.67848 6.5539 2.68846Z" fill="#47D3AD" stroke="#47D3AD"/>
</svg>
