<svg
              width="17"
              height="16"
              viewBox="0 0 17 16"
              fill="none"
              xmlns="http://www.w3.org/2000/svg"
            >
              <g clip-path="url(#clip0_1357_7046)">
                <path
                  d="M12.0833 1.99955C12.2584 1.82445 12.4663 1.68556 12.6951 1.5908C12.9238 1.49604 13.169 1.44727 13.4166 1.44727C13.6643 1.44727 13.9095 1.49604 14.1382 1.5908C14.367 1.68556 14.5749 1.82445 14.75 1.99955C14.9251 2.17465 15.064 2.38252 15.1587 2.61129C15.2535 2.84006 15.3023 3.08526 15.3023 3.33288C15.3023 3.58051 15.2535 3.8257 15.1587 4.05448C15.064 4.28325 14.9251 4.49112 14.75 4.66622L5.74998 13.6662L2.08331 14.6662L3.08331 10.9995L12.0833 1.99955Z"
                  stroke="white"
                  stroke-opacity="0.87"
                  stroke-width="1.5"
                  stroke-linecap="round"
                  stroke-linejoin="round"
                />
              </g>
              <defs>
                <clipPath id="clip0_1357_7046">
                  <rect
                    width="16"
                    height="16"
                    fill="white"
                    transform="translate(0.75)"
                  />
                </clipPath>
              </defs>
            </svg>