<svg width="24" height="25" viewBox="0 0 24 25" fill="none" xmlns="http://www.w3.org/2000/svg">
<path d="M12 13.501C12.5523 13.501 13 13.0533 13 12.501C13 11.9487 12.5523 11.501 12 11.501C11.4477 11.501 11 11.9487 11 12.501C11 13.0533 11.4477 13.501 12 13.501Z" fill="white" fill-opacity="0.6" stroke="#A6A9AC" stroke-width="1.5" stroke-linecap="round" stroke-linejoin="round"/>
<path d="M12 6.50098C12.5523 6.50098 13 6.05326 13 5.50098C13 4.94869 12.5523 4.50098 12 4.50098C11.4477 4.50098 11 4.94869 11 5.50098C11 6.05326 11.4477 6.50098 12 6.50098Z" fill="#A6A9AC" stroke="#A6A9AC" stroke-width="1.5" stroke-linecap="round" stroke-linejoin="round"/>
<path d="M12 20.501C12.5523 20.501 13 20.0533 13 19.501C13 18.9487 12.5523 18.501 12 18.501C11.4477 18.501 11 18.9487 11 19.501C11 20.0533 11.4477 20.501 12 20.501Z" fill="#A6A9AC" stroke="#A6A9AC" stroke-width="1.5" stroke-linecap="round" stroke-linejoin="round"/>
</svg>
